<svg width="32" height="36" viewBox="0 0 32 36" fill="none"
    xmlns="http://www.w3.org/2000/svg">
    <path fill-rule="evenodd" clip-rule="evenodd" d="M3.74643 0H28.2353C30.3004 0 31.9817 1.6702 32 3.72163V36L28.0525 32.6051L25.8412 30.59L23.502 28.4478L24.4706 31.77H3.74643C1.68132 31.77 0 30.0998 0 28.0484V3.72163C0 1.6702 1.68132 0 3.74643 0ZM19.9749 22.0575C20.5231 22.7292 21.181 23.5098 21.181 23.5098C25.0074 23.3894 26.5866 21.0367 26.7421 20.8049C26.7508 20.7921 26.755 20.7857 26.755 20.7867C26.755 14.9955 24.1234 10.2935 24.1234 10.2935C21.51 8.35098 19.0063 8.40545 19.0063 8.40545L18.7504 8.69592C21.8572 9.62178 23.301 10.9834 23.301 10.9834C21.4003 9.96672 19.5363 9.4584 17.8001 9.2587C16.4843 9.11346 15.2233 9.14977 14.1085 9.29501C14.0128 9.29501 13.931 9.30884 13.8388 9.32444C13.8254 9.3267 13.8118 9.32901 13.7978 9.33132C13.1582 9.40393 11.6048 9.62179 9.64934 10.475C8.97316 10.7655 8.5711 10.9834 8.5711 10.9834C8.5711 10.9834 10.0697 9.54917 13.3592 8.6233L13.1765 8.40545C13.1765 8.40545 10.691 8.35098 8.05939 10.2935C8.05939 10.2935 5.42776 14.9955 5.42776 20.7867C5.42776 20.7867 6.96288 23.4009 11.0017 23.528C11.0017 23.528 11.6779 22.7292 12.2262 22.0393C9.9052 21.3495 9.02798 19.9153 9.02798 19.9153C9.02798 19.9153 9.21074 20.0424 9.53969 20.2239C9.55099 20.2239 9.56228 20.2308 9.57789 20.2404C9.58754 20.2463 9.59883 20.2533 9.61279 20.2602C9.64021 20.2784 9.66762 20.292 9.69503 20.3056C9.72244 20.3192 9.74986 20.3328 9.77727 20.351C10.2342 20.6051 10.691 20.8048 11.1114 20.9682C11.8607 21.2769 12.7561 21.5492 13.7978 21.7489C15.1685 22.003 16.7767 22.0938 18.5311 21.767C19.3901 21.6036 20.2673 21.3676 21.181 20.9864C21.8207 20.7504 22.5334 20.4054 23.2827 19.9153C23.2827 19.9153 22.3689 21.3858 19.9749 22.0575ZM17.4894 17.1015C17.4894 15.9941 18.3118 15.1045 19.3535 15.1045C20.3769 15.1045 21.2176 15.9941 21.2176 17.1015C21.2176 18.2089 20.3952 19.0984 19.3535 19.0984C18.3301 19.0984 17.4894 18.2089 17.4894 17.1015ZM10.8189 17.1015C10.8189 15.9941 11.6413 15.1045 12.683 15.1045C13.7247 15.1045 14.5654 15.9941 14.5471 17.1015C14.5471 18.2089 13.7247 19.0984 12.683 19.0984C11.6596 19.0984 10.8189 18.2089 10.8189 17.1015Z" fill="#7289DA"/>
</svg>
