<svg id="twitter-fill" xmlns="http://www.w3.org/2000/svg" width="24" height="24" viewBox="0 0 24 24">
  <path id="Path" d="M0,0H24V24H0Z" fill="none"/>
  <path id="Path-2" data-name="Path" d="M20.383,1.968a8.384,8.384,0,0,1-2.4.658A4.2,4.2,0,0,0,19.821.312a8.358,8.358,0,0,1-2.656,1.015,4.182,4.182,0,0,0-7.126,3.814A11.874,11.874,0,0,1,1.419.771,4.188,4.188,0,0,0,2.713,6.355,4.168,4.168,0,0,1,.819,5.832v.052a4.185,4.185,0,0,0,3.355,4.1,4.21,4.21,0,0,1-1.89.072,4.185,4.185,0,0,0,3.907,2.9A8.394,8.394,0,0,1,0,14.694a11.83,11.83,0,0,0,6.41,1.88,11.819,11.819,0,0,0,11.9-11.9c0-.18,0-.362-.013-.54a8.5,8.5,0,0,0,2.087-2.165Z" transform="translate(1.779 3.688)" fill="#00acee"/>
</svg>
