<svg id="Iconly_Two-tone_3_User" data-name="Iconly/Two-tone/3 User" xmlns="http://www.w3.org/2000/svg" width="18" height="18" viewBox="0 0 18 18">
  <g id="_2_User" data-name="2 User" transform="translate(2.063 2.437)">
    <path id="Stroke_1" data-name="Stroke 1" d="M0,4.945A2.473,2.473,0,0,0,2.473,2.473,2.473,2.473,0,0,0,0,0" transform="translate(9.952 0.802)" fill="none" stroke="#200e32" stroke-linecap="round" stroke-linejoin="round" stroke-miterlimit="10" stroke-width="1.5" opacity="0.4"/>
    <path id="Stroke_3" data-name="Stroke 3" d="M0,0A8.174,8.174,0,0,1,1.213.175a2,2,0,0,1,1.459.835,1.176,1.176,0,0,1,0,1.009,2.012,2.012,0,0,1-1.459.839" transform="translate(11.089 8.435)" fill="none" stroke="#200e32" stroke-linecap="round" stroke-linejoin="round" stroke-miterlimit="10" stroke-width="1.5"/>
    <path id="Stroke_5" data-name="Stroke 5" d="M5.131,0C7.9,0,10.262.419,10.262,2.094S7.913,4.2,5.131,4.2,0,3.785,0,2.109,2.348,0,5.131,0Z" transform="translate(0 8.967)" fill="none" stroke="#200e32" stroke-linecap="round" stroke-linejoin="round" stroke-miterlimit="10" stroke-width="1.5"/>
    <path id="Stroke_7" data-name="Stroke 7" d="M3.288,6.577A3.288,3.288,0,1,1,6.577,3.288,3.276,3.276,0,0,1,3.288,6.577Z" transform="translate(1.843)" fill="none" stroke="#200e32" stroke-linecap="round" stroke-linejoin="round" stroke-miterlimit="10" stroke-width="1.5" opacity="0.4"/>
  </g>
</svg>
