<svg xmlns="http://www.w3.org/2000/svg" width="19.044" height="17.7" viewBox="0 0 19.044 17.7">
  <g id="Iconly_Two-tone_Wallet" data-name="Iconly/Two-tone/Wallet" transform="translate(0.458)">
    <g id="Wallet" transform="translate(0.292 0.75)">
      <path id="Stroke_1" data-name="Stroke 1" d="M6.179,4.934H2.468A2.467,2.467,0,1,1,2.468,0H6.179" transform="translate(11.365 5.512)" fill="none" stroke="currentColor" stroke-linecap="round" stroke-linejoin="round" stroke-miterlimit="10" stroke-width="1.5"/>
      <path id="Stroke_3" data-name="Stroke 3" d="M.561.418H.275" transform="translate(13.692 7.505)" fill="none" stroke="currentColor" stroke-linecap="round" stroke-linejoin="round" stroke-miterlimit="10" stroke-width="1.5"/>
      <path id="Stroke_5" data-name="Stroke 5" d="M4.81,0h7.923a4.81,4.81,0,0,1,4.81,4.81v6.579a4.81,4.81,0,0,1-4.81,4.81H4.81A4.81,4.81,0,0,1,0,11.389V4.81A4.81,4.81,0,0,1,4.81,0Z" transform="translate(0 0)" fill="none" stroke="currentColor" stroke-linecap="round" stroke-linejoin="round" stroke-miterlimit="10" stroke-width="1.5"/>
      <path id="Stroke_7" data-name="Stroke 7" d="M0,.418H4.949" transform="translate(4.158 3.742)" fill="none" stroke="currentColor" stroke-linecap="round" stroke-linejoin="round" stroke-miterlimit="10" stroke-width="1.5" opacity="0.4"/>
    </g>
  </g>
</svg>
