<svg xmlns="http://www.w3.org/2000/svg"
  xmlns:xlink="http://www.w3.org/1999/xlink" width="510" height="400" viewBox="1185 291 10 300">
  <defs>
    <linearGradient id="linear-gradient" x1="0.986" y1="1" x2="0.008" y2="0.014" gradientUnits="objectBoundingBox">
      <stop offset="0" stop-color="#f1f2f6"/>
      <stop offset="0.528" stop-color="#e5eaf7"/>
      <stop offset="1" stop-color="#e7eaf8"/>
      <stop offset="1" stop-color="#e8eaf8"/>
      <stop offset="1" stop-color="#eff0f8"/>
    </linearGradient>
    <clipPath id="clip-path">
      <rect id="Mask" width="1441" height="591" fill="url(#linear-gradient)"/>
    </clipPath>
  </defs>
  <g id="_891_Converted_" data-name="891 [Converted]" clip-path="url(#clip-path)">
    <g id="undraw_instant_information_6755" transform="translate(1002 308)">
      <ellipse id="Oval" cx="129.5" cy="6.5" rx="129.5" ry="6.5" transform="translate(206 371)" fill="#d0cde1"/>
      <path id="Path" d="M142.746,49A85.1,85.1,0,0,0,5.473,36.336L0,31.561A92.361,92.361,0,0,1,149,45.3Z" transform="translate(23)" fill="#016acf"/>
      <path id="Path-2" data-name="Path" d="M7.029,100.747,0,95.542C16.817,67.351,20.409,34.426,5.061,5.2l6-5.2C27.726,31.732,25.288,70.144,7.029,100.747Z" transform="matrix(1, 0.017, -0.017, 1, 161.13, 43.648)" fill="#f5d802"/>
      <path id="Path-3" data-name="Path" d="M23.577,122A91.809,91.809,0,0,1,22.818,0L28.3,4.772a84.579,84.579,0,0,0,.7,112.39Z" transform="translate(0 31)" fill="#1a202e"/>
      <path id="Path-4" data-name="Path" d="M67.624,44A91.066,91.066,0,0,1,0,13.89L5.323,9.14A83.789,83.789,0,0,0,73.442,36.68,83.688,83.688,0,0,0,137.069,0L143,3.972A90.8,90.8,0,0,1,67.624,44Z" transform="translate(23 139)" fill="#05b07e"/>
      <path id="Path-5" data-name="Path" d="M102,44H0V0H1.57V42.456H102V44Z" transform="translate(156 145)" fill="#3f3d56"/>
      <circle id="Oval-2" data-name="Oval" cx="8" cy="8" r="8" transform="translate(147 145)" fill="#3f3d56"/>
      <rect id="Rectangle" width="47" height="3" transform="translate(232 199)" fill="#05b07e"/>
      <rect id="Rectangle-2" data-name="Rectangle" width="47" height="3" transform="translate(232 208)" fill="#016acf"/>
      <rect id="Rectangle-3" data-name="Rectangle" width="47" height="3" transform="translate(232 210)" fill="#016acf"/>
      <path id="Path-6" data-name="Path" d="M3.527,0,0,11.579s-.32,5.782,8.055,5.4l-1.015-5.3L11,1.979Z" transform="translate(325 205)" fill="#a0616a"/>
      <path id="Path-7" data-name="Path" d="M1.79,2.539,5.369,13.115,0,22.423V33H7.158L17,11,11.632,0,1.79,2.539Z" transform="translate(335 138)" fill="#a0616a"/>
      <path id="Path-8" data-name="Path" d="M12,0H2.222L1.333,13.349,0,29l16-4.143L12,0Z" transform="translate(332 160)" fill="#d0cde1"/>
      <path id="Path-9" data-name="Path" d="M16.912,0,8.673,25.975,0,64.276l8.239,2.642,12.575-36.1L29.92,11.447l2.168,21.572,3.035,35.66L43.363,70V32.138L49,0Z" transform="translate(310 225)" fill="#a0616a"/>
      <path id="Path-10" data-name="Path" d="M34.48,2.471,21.1,0,12.592,9.392S-5.432,16.5,1.648,16.806C13.2,17.3,36,16.806,36,15.817S34.48,2.471,34.48,2.471Z" transform="translate(325 358)" fill="#2f2e41"/>
      <path id="Path-11" data-name="Path" d="M34.48,2.471,21.1,0,12.592,9.392S-5.432,16.5,1.648,16.806C13.2,17.3,36,16.806,36,15.817S34.48,2.471,34.48,2.471Z" transform="translate(280 358)" fill="#2f2e41"/>
      <path id="Path-12" data-name="Path" d="M24.947.018,5.384,3.035,0,44.414s4.079,3.879,14.513,1.293V47s15.651-7.328,19.563,0l.268-1.151a61.565,61.565,0,0,0-2.6-36.664C29.634,3.857,27.229-.306,24.947.018Z" transform="translate(325 184)" fill="#0e0d2a"/>
      <ellipse id="Oval-3" data-name="Oval" cx="10" cy="12" rx="10" ry="12" transform="translate(329 120)" fill="#a0616a"/>
      <path id="Path-13" data-name="Path" d="M12.9,0,.394,26.3A31.353,31.353,0,0,0,3.729,46.027c3.066,5.7,10.437,17.749,16.259,27.134C24.457,80.364,18.535,86,18.535,86L40,82.849,27.076,42.082,25.408,7.014l-8.755-2.63Z" transform="translate(339 142)" fill="#121487"/>
      <path id="Path-14" data-name="Path" d="M11.515,0,1.2,6.919S-2.835,11.243,3.892,16l2.691-4.757L16,6.054Z" transform="translate(348 189)" fill="#a0616a"/>
      <path id="Path-15" data-name="Path" d="M0,78,16,0,9.865,3.55A8.137,8.137,0,0,0,5.782,9.886Z" transform="translate(325 150)" fill="#121487"/>
      <path id="Path-16" data-name="Path" d="M.667,0,1,8.556,0,11,.667,0Z" transform="translate(340 228)" fill="#2f2e41" opacity="0.2"/>
      <path id="Path-17" data-name="Path" d="M4.871,0h5.619a7.363,7.363,0,0,1,3.89,4.743c.864,3.45,3.89,18.541,3.89,18.541L20,31.908,9.194,47,2.71,39.239l5.619-8.193L.117,10.78S-1.18,2.156,4.871,0Z" transform="translate(353 149)" fill="#1f219e"/>
      <path id="Path-18" data-name="Path" d="M0,0,7,15.709.616,24l4.911-8.291L0,0Z" transform="translate(355 166)" fill="#2f2e41" opacity="0.2"/>
      <circle id="Oval-4" data-name="Oval" cx="2.5" cy="2.5" r="2.5" transform="translate(343 130)" fill="#a0616a"/>
      <path id="Path-19" data-name="Path" d="M19.359,39.755h0a12.373,12.373,0,0,1-8.574-1.384L8.226,36.926l-.541-3.18a1.941,1.941,0,0,0-1.125-1.48,1.686,1.686,0,0,0-1.745.266h0s-9.874-11.075-1.342-15.71,10.177-2.789,10.177-2.789S11.424-2.95,23.321.45s8.614,19.321-.634,19.743C22.687,20.193,30.584,35.3,19.359,39.755Z" transform="translate(331 100)" fill="#2f2e41"/>
      <path id="Path-20" data-name="Path" d="M3.193,16S-3.974,1.732,7.905.583A10.5,10.5,0,0,1,13,1.253,9.988,9.988,0,0,0,6.855.061C-5.024,1.21,2.143,15.478,2.143,15.478Z" transform="translate(340 98)" fill="#2f2e41"/>
      <path id="Path-21" data-name="Path" d="M15.349,31S20.826,11.246,0,0Z" transform="translate(418 344)" fill="#d0cde1"/>
      <path id="Path-22" data-name="Path" d="M0,17S2.382,1,29,0Z" transform="translate(436 356)" fill="#d0cde1"/>
    </g>
  </g>
</svg>
